# xmcd
#
# Track frame offsets:
#	150
#	14495
#	33782
#	55543
#	69357
#	83093
#	100807
#	119157
#	137424
#	151011
#	165356
#	184643
#	206404
#	220218
#	233954
#	251668
#	270018
#	288285
#
# Disc length: 4024
#
# Revision: 2
# Processed by: cddbd v1.5.1PL0 Copyright (c) Steve Scherf et al.
# Submitted via: audiograbber 1.83.01
# Normalized: r1:DSETVAR1
#
DISCID=e30fb612
DTITLE=Various Artist - PHMN0405
DYEAR=2004
DGENRE=
TTITLE0=Billy Currington - I Got A Feelin'
TTITLE1=Julie Roberts - Break Down Here
TTITLE2=Wynonna and Naomi Judd - Flies On The Butter
TTITLE3=Montgomery Gentry - If You Ever Stop Loving Me
TTITLE4=Brooks and Dunn - That's What She Gets For Loving Me
TTITLE5=Andy Griggs - She Thinks She Needs Me
TTITLE6=Lonestar - Let's Be Us Again
TTITLE7=Big and Rich - Wild West Show
TTITLE8=Lee Ann Womack - Wrong Girl, The
TTITLE9=Billy Currington - I Got A Feelin' (vocal)
TTITLE10=Julie Roberts - Break Down Here (vocal)
TTITLE11=Wynonna and Naomi Judd - Flies On The Butter (vocal)
TTITLE12=Montgomery Gentry - If You Ever Stop Loving Me (vocal)
TTITLE13=Brooks and Dunn - That's What She Gets For Loving Me (vocal)
TTITLE14=Andy Griggs - She Thinks She Needs Me (vocal)
TTITLE15=Lonestar - Let's Be Us Again (vocal)
TTITLE16=Big and Rich - Wild West Show (vocal)
TTITLE17=Lee Ann Womack - Wrong Girl, The (vocal)
EXTD=
EXTT0=
EXTT1=
EXTT2=
EXTT3=
EXTT4=
EXTT5=
EXTT6=
EXTT7=
EXTT8=
EXTT9=
EXTT10=
EXTT11=
EXTT12=
EXTT13=
EXTT14=
EXTT15=
EXTT16=
EXTT17=
PLAYORDER=
